name rise44.8762peak52.3436fall86.788.mot
datacolumns 19
datarows 15
range 10.23496200000000 10.25829000000000
endheader
time	ground_force1_vx	ground_force1_vy	ground_force1_vz	ground_force1_px	ground_force1_py	ground_force1_pz	ground_force2_vx	ground_force2_vy	ground_force2_vz	ground_force2_px	ground_force2_py	ground_force2_pz	ground_torque1_x	ground_torque1_y	ground_torque1_z	ground_torque2_x	ground_torque2_y	ground_torque2_z	
10.23496200000000	67.29714500000000	774.68780800000002	56.58902800000000	0.27702100000000	0.00000000000000	0.11363100000000	0.00000000000000	0.00000000000000	0.00000000000000	0.00000000000000	0.00000000000000	0.00000000000000	0.00000000000000	15.89415000000000	0.00000000000000	0.00000000000000	0.00000000000000	0.00000000000000	
10.23662400000000	66.51089899999999	775.49450899999999	56.47440300000000	0.27624100000000	0.00000000000000	0.11360500000000	0.00000000000000	0.00000000000000	0.00000000000000	0.00000000000000	0.00000000000000	0.00000000000000	0.00000000000000	15.86741100000000	0.00000000000000	0.00000000000000	0.00000000000000	0.00000000000000	
10.23829400000000	65.72678000000001	776.19672300000002	56.36635500000000	0.27547400000000	0.00000000000000	0.11358200000000	0.00000000000000	0.00000000000000	0.00000000000000	0.00000000000000	0.00000000000000	0.00000000000000	0.00000000000000	15.84599100000000	0.00000000000000	0.00000000000000	0.00000000000000	0.00000000000000	
10.23996300000000	64.94494600000000	776.79484700000000	56.26478500000000	0.27471500000000	0.00000000000000	0.11356000000000	0.00000000000000	0.00000000000000	0.00000000000000	0.00000000000000	0.00000000000000	0.00000000000000	0.00000000000000	15.82971700000000	0.00000000000000	0.00000000000000	0.00000000000000	0.00000000000000	
10.24162400000000	64.16550599999999	777.28940499999999	56.16950600000000	0.27396400000000	0.00000000000000	0.11354100000000	0.00000000000000	0.00000000000000	0.00000000000000	0.00000000000000	0.00000000000000	0.00000000000000	0.00000000000000	15.81837200000000	0.00000000000000	0.00000000000000	0.00000000000000	0.00000000000000	
10.24329000000000	63.38851500000000	777.68105900000000	56.08025500000000	0.27321700000000	0.00000000000000	0.11352400000000	0.00000000000000	0.00000000000000	0.00000000000000	0.00000000000000	0.00000000000000	0.00000000000000	0.00000000000000	15.81170000000000	0.00000000000000	0.00000000000000	0.00000000000000	0.00000000000000	
10.24496300000000	62.61399000000000	777.97060999999997	55.99669100000000	0.27247300000000	0.00000000000000	0.11350900000000	0.00000000000000	0.00000000000000	0.00000000000000	0.00000000000000	0.00000000000000	0.00000000000000	0.00000000000000	15.80940500000000	0.00000000000000	0.00000000000000	0.00000000000000	0.00000000000000	
10.24662600000000	61.84190900000000	778.15900499999998	55.91841100000000	0.27172700000000	0.00000000000000	0.11349600000000	0.00000000000000	0.00000000000000	0.00000000000000	0.00000000000000	0.00000000000000	0.00000000000000	0.00000000000000	15.81116200000000	0.00000000000000	0.00000000000000	0.00000000000000	0.00000000000000	
10.24829000000000	61.07221500000000	778.24734100000001	55.84494900000000	0.27097900000000	0.00000000000000	0.11348500000000	0.00000000000000	0.00000000000000	0.00000000000000	0.00000000000000	0.00000000000000	0.00000000000000	0.00000000000000	15.81661200000000	0.00000000000000	0.00000000000000	0.00000000000000	0.00000000000000	
10.24995700000000	60.30482500000000	778.23686499999997	55.77578300000000	0.27022600000000	0.00000000000000	0.11347700000000	0.00000000000000	0.00000000000000	0.00000000000000	0.00000000000000	0.00000000000000	0.00000000000000	0.00000000000000	15.82537500000000	0.00000000000000	0.00000000000000	0.00000000000000	0.00000000000000	
10.25162700000000	59.53963500000000	778.12897799999996	55.71034800000000	0.26946500000000	0.00000000000000	0.11347100000000	0.00000000000000	0.00000000000000	0.00000000000000	0.00000000000000	0.00000000000000	0.00000000000000	0.00000000000000	15.83704300000000	0.00000000000000	0.00000000000000	0.00000000000000	0.00000000000000	
10.25329400000000	58.77652100000000	777.92523500000004	55.64803700000000	0.26869500000000	0.00000000000000	0.11346800000000	0.00000000000000	0.00000000000000	0.00000000000000	0.00000000000000	0.00000000000000	0.00000000000000	0.00000000000000	15.85119500000000	0.00000000000000	0.00000000000000	0.00000000000000	0.00000000000000	
10.25495900000000	58.01534700000000	777.62734699999999	55.58820800000000	0.26791200000000	0.00000000000000	0.11346700000000	0.00000000000000	0.00000000000000	0.00000000000000	0.00000000000000	0.00000000000000	0.00000000000000	0.00000000000000	15.86739100000000	0.00000000000000	0.00000000000000	0.00000000000000	0.00000000000000	
10.25662500000000	57.25596900000000	777.23717599999998	55.53019400000000	0.26711500000000	0.00000000000000	0.11346800000000	0.00000000000000	0.00000000000000	0.00000000000000	0.00000000000000	0.00000000000000	0.00000000000000	0.00000000000000	15.88518200000000	0.00000000000000	0.00000000000000	0.00000000000000	0.00000000000000	
10.25829000000000	56.49824000000000	776.75673700000004	55.47330800000000	0.26630200000000	0.00000000000000	0.11347200000000	0.00000000000000	0.00000000000000	0.00000000000000	0.00000000000000	0.00000000000000	0.00000000000000	0.00000000000000	15.90411100000000	0.00000000000000	0.00000000000000	0.00000000000000	0.00000000000000	
